<?xml version="1.0" encoding="UTF-8" standalone="no"?>
<svg
   width="280"
   height="240"
   version="1.1"
   id="svg20"
   sodipodi:docname="tabbar.svg"
   inkscape:version="1.3.2 (091e20ef0f, 2023-11-25, custom)"
   xmlns:inkscape="http://www.inkscape.org/namespaces/inkscape"
   xmlns:sodipodi="http://sodipodi.sourceforge.net/DTD/sodipodi-0.dtd"
   xmlns="http://www.w3.org/2000/svg"
   xmlns:svg="http://www.w3.org/2000/svg">
  <sodipodi:namedview
     id="namedview20"
     pagecolor="#ffffff"
     bordercolor="#000000"
     borderopacity="0.25"
     inkscape:showpageshadow="2"
     inkscape:pageopacity="0.0"
     inkscape:pagecheckerboard="0"
     inkscape:deskcolor="#d1d1d1"
     inkscape:zoom="3.9208333"
     inkscape:cx="139.89373"
     inkscape:cy="120.12752"
     inkscape:window-width="2560"
     inkscape:window-height="1420"
     inkscape:window-x="1920"
     inkscape:window-y="20"
     inkscape:window-maximized="1"
     inkscape:current-layer="svg20" />
  <defs
     id="defs1">
    <style
       id="current-color-scheme"
       type="text/css">
   .ColorScheme-Background {color:#2f343f; } .ColorScheme-ButtonBackground { color:#444a58; } .ColorScheme-Highlight { color:#5294e2; } .ColorScheme-Text { color:#d3dae3; } .ColorScheme-NegativeText { color:#f44336; } .ColorScheme-PositiveText { color:#4caf50; } .ColorScheme-NeutralText { color:#ff9800; }
  </style>
  </defs>
  <rect
     id="hint-tile-center"
     width="40"
     height="40"
     x="240"
     y="200"
     style="fill:#008000" />
  <rect
     id="south-active-tab-left"
     width="10"
     height="12"
     x="66"
     y="224"
     style="opacity:0.001" />
  <rect
     id="south-active-tab-center"
     width="80"
     height="12"
     x="76"
     y="224"
     style="opacity:0.001" />
  <rect
     id="south-active-tab-right"
     width="10"
     height="12"
     x="156"
     y="224"
     style="opacity:0.001" />
  <rect
     id="south-active-tab-bottomright"
     width="10"
     height="4"
     x="156"
     y="236"
     style="opacity:0.001" />
  <rect
     id="south-active-tab-bottom"
     width="80"
     height="4"
     x="76"
     y="236"
     style="opacity:0.001" />
  <rect
     id="south-active-tab-bottomleft"
     width="10"
     height="4"
     x="66"
     y="236"
     style="opacity:0.001" />
  <rect
     id="south-active-tab-hint-left-margin"
     width="6"
     height="5"
     x="66"
     y="227"
     style="fill:#4e9a06" />
  <rect
     id="south-active-tab-hint-right-margin"
     width="6"
     height="5"
     x="160"
     y="227"
     style="fill:#4e9a06" />
  <rect
     id="south-active-tab-hint-top-margin"
     width="5"
     height="8"
     x="114"
     y="221"
     style="fill:#4e9a06" />
  <rect
     id="south-active-tab-hint-bottom-margin"
     width="5"
     height="4"
     x="114"
     y="236"
     style="fill:#4e9a06" />
  <rect
     id="east-active-tab-bottom"
     width="10"
     height="12"
     x="-155.7"
     y="209"
     transform="rotate(-90)"
     style="opacity:0.001" />
  <rect
     id="east-active-tab-center"
     width="80"
     height="12"
     x="-145.7"
     y="209"
     transform="rotate(-90)"
     style="opacity:0.001" />
  <rect
     id="east-active-tab-top"
     width="10"
     height="12"
     x="-65.7"
     y="209"
     transform="rotate(-90)"
     style="opacity:0.001" />
  <rect
     id="east-active-tab-topright"
     width="10"
     height="4"
     x="-65.7"
     y="221"
     transform="rotate(-90)"
     style="opacity:0.001" />
  <rect
     id="east-active-tab-right"
     width="80"
     height="4"
     x="-145.7"
     y="221"
     transform="rotate(-90)"
     style="opacity:0.001" />
  <rect
     id="east-active-tab-bottomright"
     width="10"
     height="4"
     x="-155.7"
     y="221"
     transform="rotate(-90)"
     style="opacity:0.001" />
  <rect
     id="east-active-tab-hint-bottom-margin"
     width="6"
     height="5"
     x="-156"
     y="212"
     transform="rotate(-90)"
     style="fill:#4e9a06" />
  <rect
     id="east-active-tab-hint-top-margin"
     width="6"
     height="5"
     x="-62"
     y="212"
     transform="rotate(-90)"
     style="fill:#4e9a06" />
  <rect
     id="east-active-tab-hint-left-margin"
     width="5"
     height="8"
     x="-102"
     y="205"
     transform="rotate(-90)"
     style="fill:#4e9a06" />
  <rect
     id="east-active-tab-hint-right-margin"
     width="5"
     height="4"
     x="-102"
     y="221"
     transform="rotate(-90)"
     style="fill:#4e9a06" />
  <rect
     id="west-active-tab-top"
     width="10"
     height="12"
     x="56"
     y="-16"
     transform="rotate(90)"
     style="opacity:0.001" />
  <rect
     id="west-active-tab-center"
     width="80"
     height="12"
     x="66"
     y="-16"
     transform="rotate(90)"
     style="opacity:0.001" />
  <rect
     id="west-active-tab-bottom"
     width="10"
     height="12"
     x="146"
     y="-16"
     transform="rotate(90)"
     style="opacity:0.001" />
  <rect
     id="west-active-tab-bottomleft"
     width="10"
     height="4"
     x="146"
     y="-4"
     transform="rotate(90)"
     style="opacity:0.001" />
  <rect
     id="west-active-tab-left"
     width="80"
     height="4"
     x="66"
     y="-4"
     transform="rotate(90)"
     style="opacity:0.001" />
  <rect
     id="west-active-tab-topleft"
     width="10"
     height="4"
     x="56"
     y="-4"
     transform="rotate(90)"
     style="opacity:0.001" />
  <rect
     id="west-active-tab-hint-top-margin"
     width="6"
     height="5"
     x="56"
     y="-13"
     transform="rotate(90)"
     style="fill:#4e9a06" />
  <rect
     id="west-active-tab-hint-bottom-margin"
     width="6"
     height="5"
     x="150"
     y="-13"
     transform="rotate(90)"
     style="fill:#4e9a06" />
  <rect
     id="west-active-tab-hint-right-margin"
     width="5"
     height="8"
     x="97"
     y="-20"
     transform="rotate(90)"
     style="fill:#4e9a06" />
  <rect
     id="west-active-tab-hint-left-margin"
     width="5"
     height="4"
     x="97"
     y="-4"
     transform="rotate(90)"
     style="fill:#4e9a06" />
  <rect
     id="north-active-tab-right"
     width="10"
     height="12"
     x="-173"
     y="-16"
     transform="scale(-1)"
     style="opacity:0.001" />
  <rect
     id="north-active-tab-center"
     width="80"
     height="12"
     x="-163"
     y="-16"
     transform="scale(-1)"
     style="opacity:0.001" />
  <rect
     id="north-active-tab-left"
     width="10"
     height="12"
     x="-83"
     y="-16"
     transform="scale(-1)"
     style="opacity:0.001" />
  <rect
     id="north-active-tab-topleft"
     width="10"
     height="4"
     x="-83"
     y="-4"
     transform="scale(-1)"
     style="opacity:0.001" />
  <rect
     id="north-active-tab-top"
     width="80"
     height="4"
     x="-163"
     y="-4"
     transform="scale(-1)"
     style="opacity:0.001" />
  <rect
     id="north-active-tab-topright"
     width="10"
     height="4"
     x="-173"
     y="-4"
     transform="scale(-1)"
     style="opacity:0.001" />
  <rect
     id="north-focus-hint-right-margin"
     width="6"
     height="5"
     x="-173"
     y="-13"
     transform="scale(-1)"
     style="fill:#4e9a06" />
  <rect
     id="north-focus-hint-left-margin"
     width="6"
     height="5"
     x="-79"
     y="-13"
     transform="scale(-1)"
     style="fill:#4e9a06" />
  <rect
     id="north-focus-hint-bottom-margin"
     width="5"
     height="8"
     x="-119"
     y="-20"
     transform="scale(-1)"
     style="fill:#4e9a06" />
  <rect
     id="north-focus-hint-top-margin"
     width="5"
     height="4"
     x="-119"
     y="-4"
     transform="scale(-1)"
     style="fill:#4e9a06" />
</svg>
