<?xml version="1.0" encoding="UTF-8" standalone="no"?>
<!--?xml version="1.0" encoding="utf-8"?-->

<!-- Generator: Adobe Illustrator 18.1.1, SVG Export Plug-In . SVG Version: 6.00 Build 0)  -->

<svg
   version="1.1"
   id="_x32_"
   x="0px"
   y="0px"
   viewBox="0 0 512 512"
   style="width: 256px; height: 256px; opacity: 1;"
   xml:space="preserve"
   sodipodi:docname="cpu3.svg"
   inkscape:version="1.2 (dc2aedaf03, 2022-05-15)"
   xmlns:inkscape="http://www.inkscape.org/namespaces/inkscape"
   xmlns:sodipodi="http://sodipodi.sourceforge.net/DTD/sodipodi-0.dtd"
   xmlns="http://www.w3.org/2000/svg"
   xmlns:svg="http://www.w3.org/2000/svg"><defs
   id="defs43" /><sodipodi:namedview
   id="namedview41"
   pagecolor="#ffffff"
   bordercolor="#666666"
   borderopacity="1.0"
   inkscape:showpageshadow="2"
   inkscape:pageopacity="0.0"
   inkscape:pagecheckerboard="0"
   inkscape:deskcolor="#d1d1d1"
   showgrid="false"
   inkscape:zoom="1.5859375"
   inkscape:cx="153.53695"
   inkscape:cy="256"
   inkscape:window-width="1918"
   inkscape:window-height="1058"
   inkscape:window-x="0"
   inkscape:window-y="20"
   inkscape:window-maximized="1"
   inkscape:current-layer="g38" />
<style
   type="text/css"
   id="style2">
	.st0{fill:#4B4B4B;}
</style>
<g
   id="g38">
	<path
   class="st0"
   d="M167.315,14.993c0-8.281-6.712-14.993-14.982-14.993h-5.514c-8.27,0-14.982,6.712-14.982,14.993V56.46h35.479   V14.993z"
   style="fill: rgb(75, 75, 75);"
   id="path4" />
	<path
   class="st0"
   d="M238.261,14.993c0-8.281-6.711-14.993-14.982-14.993h-5.504c-8.27,0-14.982,6.712-14.982,14.993V56.46h35.468   V14.993z"
   style="fill: rgb(75, 75, 75);"
   id="path6" />
	<path
   class="st0"
   d="M309.208,14.993c0-8.281-6.712-14.993-14.982-14.993h-5.504c-8.27,0-14.982,6.712-14.982,14.993V56.46h35.468   V14.993z"
   style="fill: rgb(75, 75, 75);"
   id="path8" />
	<path
   class="st0"
   d="M380.164,14.993c0-8.281-6.711-14.993-14.982-14.993h-5.514c-8.27,0-14.982,6.712-14.982,14.993V56.46h35.478   V14.993z"
   style="fill: rgb(75, 75, 75);"
   id="path10" />
	<path
   class="st0"
   d="M131.836,497.007c0,8.282,6.712,14.993,14.982,14.993h5.514c8.27,0,14.982-6.711,14.982-14.993V455.55h-35.479   V497.007z"
   style="fill: rgb(75, 75, 75);"
   id="path12" />
	<path
   class="st0"
   d="M202.793,497.007c0,8.282,6.712,14.993,14.982,14.993h5.504c8.272,0,14.982-6.711,14.982-14.993V455.55   h-35.468V497.007z"
   style="fill: rgb(75, 75, 75);"
   id="path14" />
	<path
   class="st0"
   d="M273.739,497.007c0,8.282,6.712,14.993,14.982,14.993h5.504c8.27,0,14.982-6.711,14.982-14.993V455.55h-35.468   V497.007z"
   style="fill: rgb(75, 75, 75);"
   id="path16" />
	<path
   class="st0"
   d="M344.686,497.007c0,8.282,6.711,14.993,14.982,14.993h5.514c8.271,0,14.982-6.711,14.982-14.993V455.55   h-35.478V497.007z"
   style="fill: rgb(75, 75, 75);"
   id="path18" />
	<path
   class="st0"
   d="M497.018,131.836H455.55v35.478h41.467c8.27,0,14.982-6.712,14.982-14.993v-5.493   C512,138.548,505.288,131.836,497.018,131.836z"
   style="fill: rgb(75, 75, 75);"
   id="path20" />
	<path
   class="st0"
   d="M497.018,202.793H455.55v35.468h41.467c8.27,0,14.982-6.712,14.982-14.982v-5.494   C512,209.504,505.288,202.793,497.018,202.793z"
   style="fill: rgb(75, 75, 75);"
   id="path22" />
	<path
   class="st0"
   d="M497.018,273.739H455.55v35.468h41.467c8.27,0,14.982-6.711,14.982-14.992v-5.494   C512,280.451,505.288,273.739,497.018,273.739z"
   style="fill: rgb(75, 75, 75);"
   id="path24" />
	<path
   class="st0"
   d="M497.018,344.685H455.55v35.479h41.467c8.27,0,14.982-6.712,14.982-14.993v-5.493   C512,351.397,505.288,344.685,497.018,344.685z"
   style="fill: rgb(75, 75, 75);"
   id="path26" />
	<path
   class="st0"
   d="M0,146.829v5.493c0,8.281,6.712,14.993,14.982,14.993H56.46v-35.478H14.982C6.712,131.836,0,138.548,0,146.829   z"
   style="fill: rgb(75, 75, 75);"
   id="path28" />
	<path
   class="st0"
   d="M0,217.785v5.494c0,8.27,6.712,14.982,14.982,14.982H56.46v-35.468H14.982C6.712,202.793,0,209.504,0,217.785z   "
   style="fill: rgb(75, 75, 75);"
   id="path30" />
	<path
   class="st0"
   d="M0,288.721v5.494c0,8.281,6.712,14.992,14.982,14.992H56.46v-35.468H14.982C6.712,273.739,0,280.451,0,288.721   z"
   style="fill: rgb(75, 75, 75);"
   id="path32" />
	<path
   class="st0"
   d="M0,359.679v5.493c0,8.281,6.712,14.993,14.982,14.993H56.46v-35.479H14.982C6.712,344.685,0,351.397,0,359.679   z"
   style="fill: rgb(75, 75, 75);"
   id="path34" />
	<rect
   x="96.3666"
   y="96.366646"
   class="st0"
   width="319.27682"
   height="319.27768"
   style="fill:#4b4b4b;stroke-width:0.9"
   id="rect36"
   ry="0" />
</g>
</svg>
